<svg width="78" height="32" fill="none" xmlns="http://www.w3.org/2000/svg"><path d="M40.03 10.843h-3.545l-.675 2.022h-2.15l3.654-9.81h1.874l3.674 9.81h-2.15l-.682-2.022Zm-3-1.637h2.455L38.25 5.534l-1.22 3.672Zm8.832-5.424v1.792h1.247v1.429h-1.247v3.638c0 .27.051.463.155.58.103.116.3.175.593.175.216 0 .407-.016.573-.047v1.475a4.012 4.012 0 0 1-1.18.175c-1.366 0-2.063-.689-2.09-2.068V7.003h-1.065V5.574h1.065V3.782h1.949Zm1.827 5.37c0-.723.139-1.368.417-1.934a3.067 3.067 0 0 1 1.2-1.314c.526-.31 1.135-.465 1.827-.465.985 0 1.787.301 2.407.903.624.602.973 1.42 1.045 2.453l.013.499c0 1.118-.312 2.016-.937 2.695-.625.674-1.463 1.01-2.514 1.01-1.052 0-1.892-.336-2.521-1.01-.625-.674-.937-1.59-.937-2.75v-.087Zm1.948.142c0 .691.13 1.221.39 1.59.261.364.634.546 1.12.546.472 0 .84-.18 1.105-.54.265-.363.398-.943.398-1.738 0-.678-.133-1.204-.398-1.577s-.638-.559-1.119-.559c-.476 0-.845.186-1.105.56-.26.368-.391.94-.391 1.718Zm7.988-3.72.06.815c.517-.633 1.216-.95 2.097-.95.94 0 1.584.37 1.935 1.112.512-.741 1.243-1.112 2.19-1.112.792 0 1.38.232 1.767.694.386.459.58 1.15.58 2.076v4.656h-1.955v-4.65c0-.413-.081-.714-.243-.902-.162-.194-.447-.29-.856-.29-.584 0-.989.278-1.213.835l.006 5.007h-1.948V8.222c0-.422-.083-.728-.25-.916-.166-.189-.449-.283-.849-.283-.552 0-.952.229-1.2.687v5.155h-1.948v-7.29h1.827Zm12.188 7.29h-1.955v-7.29h1.955v7.29Zm-2.07-9.177c0-.292.097-.532.29-.72.198-.19.466-.284.803-.284.332 0 .597.095.795.283a.953.953 0 0 1 .297.721.95.95 0 0 1-.304.728c-.197.189-.46.283-.788.283s-.594-.094-.796-.283a.96.96 0 0 1-.296-.728Zm6.715 7.743c.36 0 .651-.1.876-.297.225-.198.342-.46.35-.788h1.828c-.005.494-.14.947-.405 1.36-.265.41-.63.729-1.092.958a3.414 3.414 0 0 1-1.523.336c-1.043 0-1.866-.33-2.468-.99-.602-.665-.903-1.581-.903-2.75v-.127c0-1.123.299-2.02.896-2.689.598-.669 1.418-1.004 2.461-1.004.912 0 1.643.26 2.19.782.554.517.835 1.206.844 2.069h-1.827c-.01-.378-.126-.683-.35-.917-.226-.238-.522-.357-.89-.357-.455 0-.798.166-1.032.499-.23.328-.344.862-.344 1.603v.202c0 .75.115 1.29.344 1.618.23.327.577.492 1.045.492ZM44.904 26.041l1.322-6.98h2.015l-2.177 9.81h-2.036L42.43 22.31l-1.597 6.563h-2.036l-2.178-9.81h2.016l1.328 6.967 1.618-6.967h1.712l1.611 6.98Zm8.305 2.83a2.16 2.16 0 0 1-.195-.653c-.472.525-1.085.788-1.84.788-.715 0-1.308-.207-1.78-.62a1.997 1.997 0 0 1-.701-1.563c0-.773.285-1.366.856-1.779.575-.413 1.404-.622 2.488-.627h.896v-.417c0-.337-.087-.607-.263-.809-.17-.202-.442-.303-.816-.303-.328 0-.586.079-.775.236-.184.157-.276.373-.276.647h-1.948c0-.423.13-.813.39-1.173.261-.36.63-.64 1.106-.842a3.992 3.992 0 0 1 1.605-.31c.899 0 1.61.227 2.137.68.53.45.795 1.083.795 1.9v3.16c.005.692.101 1.216.29 1.57v.115H53.21Zm-1.61-1.354c.287 0 .552-.063.795-.189.242-.13.422-.303.54-.519v-1.253h-.729c-.975 0-1.494.337-1.557 1.01l-.007.115c0 .243.085.443.256.6.171.157.405.236.701.236Zm6.842 1.354h-1.955v-10.35h1.955v10.35Zm3.667 0h-1.955v-10.35h1.955v10.35Zm4.968.135c-1.07 0-1.941-.328-2.615-.984-.67-.656-1.005-1.53-1.005-2.62v-.19c0-.732.142-1.385.425-1.96a3.096 3.096 0 0 1 1.2-1.334c.521-.315 1.114-.472 1.78-.472.997 0 1.781.314 2.352.943.575.629.863 1.52.863 2.675v.795H65.43c.063.477.252.858.567 1.146.319.287.72.431 1.206.431.75 0 1.337-.272 1.76-.815l.957 1.071a2.949 2.949 0 0 1-1.186.97 3.925 3.925 0 0 1-1.659.344Zm-.222-5.983c-.387 0-.701.13-.944.39-.238.261-.391.634-.458 1.119h2.71v-.155c-.01-.431-.126-.764-.35-.997-.226-.238-.545-.357-.958-.357Zm6.667-3.235v1.793h1.247v1.428H73.52v3.639c0 .27.051.462.155.58.103.116.301.174.593.174.216 0 .407-.015.573-.047v1.476a4.013 4.013 0 0 1-1.18.175c-1.366 0-2.062-.69-2.09-2.068V23.01h-1.065v-1.428h1.066v-1.793h1.948Z" fill="#888889"/><path fill-rule="evenodd" clip-rule="evenodd" d="M0 32 9.863 4.991c1.251-3.153 3.585-4.938 6.686-4.99V0a8.365 8.365 0 0 1 .14 0v.001c3.101.052 5.434 1.837 6.686 4.99L33.237 32l-6.107-2.123-8.425-23.072c-.513-1.276-1.105-1.736-2.086-1.756-.982.02-1.573.48-2.086 1.756L6.107 29.877 0 32Zm20.91-10.284c0 2.359-1.895 4.271-4.233 4.271-2.338 0-4.234-1.912-4.234-4.271 0-2.36 1.896-4.272 4.234-4.272s4.233 1.912 4.233 4.272Z" fill="#888889"/><mask id="a" style="mask-type:alpha" maskUnits="userSpaceOnUse" x="0" y="0" width="34" height="32"><path fill-rule="evenodd" clip-rule="evenodd" d="M0 32 9.863 4.991c1.251-3.153 3.585-4.938 6.686-4.99V0a8.365 8.365 0 0 1 .14 0v.001c3.101.052 5.434 1.837 6.686 4.99L33.237 32l-6.107-2.123-8.425-23.072c-.513-1.276-1.105-1.736-2.086-1.756-.982.02-1.573.48-2.086 1.756L6.107 29.877 0 32Zm20.91-10.284c0 2.359-1.895 4.271-4.233 4.271-2.338 0-4.234-1.912-4.234-4.271 0-2.36 1.896-4.272 4.234-4.272s4.233 1.912 4.233 4.272Z" fill="#fff"/></mask></svg>