<svg width="160" height="32" fill="none" xmlns="http://www.w3.org/2000/svg"><g clip-path="url(#a)" fill="#888889"><path d="m9.789 13.446 6.215-6.212 6.217 6.217 3.614-3.617L16.004 0 6.172 9.832l3.617 3.614ZM0 16l3.615-3.615 3.616 3.616-3.616 3.615L0 16.001ZM9.786 18.554 16 24.769l6.217-6.217 3.617 3.611-.002.003L16 32l-9.832-9.83-.005-.004 3.622-3.612ZM24.77 16.002l3.615-3.616L32 16.002l-3.615 3.615L24.769 16Z"/><path d="m19.672 15.999-3.668-3.67-2.712 2.712-.313.31-.642.643-.005.005.005.007 3.667 3.665 3.668-3.67.002-.002h-.002ZM37.64 7.754h7.866c1.951 0 3.427.506 4.428 1.517a3.916 3.916 0 0 1 1.16 2.86v.049a3.941 3.941 0 0 1-1.36 3.083c-.262.226-.55.421-.856.582.885.308 1.68.829 2.317 1.516.563.64.844 1.525.844 2.654v.048a4.407 4.407 0 0 1-.447 2.037c-.3.584-.74 1.084-1.281 1.456a6.077 6.077 0 0 1-2.01.872c-.852.202-1.725.3-2.6.29h-8.06V7.754Zm7.078 6.86a3.89 3.89 0 0 0 1.963-.425 1.465 1.465 0 0 0 .723-1.37v-.048a1.499 1.499 0 0 0-.63-1.296c-.419-.299-1.025-.448-1.816-.448h-3.68v3.587h3.44Zm.993 6.836a3.589 3.589 0 0 0 1.946-.447 1.537 1.537 0 0 0 .703-1.395v-.048a1.595 1.595 0 0 0-.655-1.345c-.435-.337-1.137-.505-2.108-.505h-4.32v3.74h4.434ZM56.727 7.754h3.733v16.97h-3.733V7.753ZM66.106 7.754h3.442l7.956 10.444V7.754h3.685v16.97h-3.177l-8.216-10.788v10.787h-3.69V7.754ZM92.493 7.633h3.437l7.271 17.09h-3.897l-1.552-3.806h-7.175l-1.552 3.806H85.22l7.274-17.09Zm3.927 9.988-2.26-5.504-2.249 5.504h4.51ZM107.238 7.754h3.443l7.951 10.444V7.754h3.685v16.97h-3.177l-8.217-10.788v10.787h-3.685V7.754ZM135.752 25.022a8.83 8.83 0 0 1-3.468-.678 8.383 8.383 0 0 1-4.582-4.63 8.984 8.984 0 0 1-.655-3.42v-.047a8.805 8.805 0 0 1 2.475-6.195 8.386 8.386 0 0 1 2.78-1.89 9.07 9.07 0 0 1 3.586-.69c.728-.006 1.454.059 2.169.194a9.026 9.026 0 0 1 1.784.533c.522.22 1.018.496 1.479.824.45.32.872.677 1.263 1.067l-2.373 2.74a9.017 9.017 0 0 0-2.022-1.408 5.173 5.173 0 0 0-2.315-.506 4.696 4.696 0 0 0-3.538 1.552 5.305 5.305 0 0 0-1.021 1.686 5.782 5.782 0 0 0-.362 2.05v.047c-.002.699.12 1.392.362 2.048a5.384 5.384 0 0 0 1.01 1.696 4.676 4.676 0 0 0 3.539 1.577 5.184 5.184 0 0 0 2.459-.534 9.503 9.503 0 0 0 1.999-1.455l2.376 2.4c-.419.456-.873.879-1.357 1.264a8.11 8.11 0 0 1-1.539.958 7.99 7.99 0 0 1-1.83.605c-.731.146-1.474.217-2.219.212ZM147.105 7.754h12.772v3.321h-9.099v3.443h8.012v3.32h-7.999v3.564h9.212v3.321h-12.89l-.008-16.969Z"/></g><defs><clipPath id="a"><path fill="#fff" d="M0 0h159.997v32H0z"/></clipPath></defs></svg>