<svg xmlns="http://www.w3.org/2000/svg" xmlns:svgjs="http://svgjs.com/svgjs" xmlns:xlink="http://www.w3.org/1999/xlink" width="288" height="288"><svg xmlns="http://www.w3.org/2000/svg" width="288" height="288" viewBox="0 0 64 64"><g fill="#b5b5b5" class="color000 svgShape" data-name="Business-cryptocurrency-digital-money-wallet"><path d="M38,18a3.009,3.009,0,0,0-3-3H29v6h6A3.009,3.009,0,0,0,38,18Z" class="color000 svgShape"/><path d="M32,36A14,14,0,1,0,18,22,14.015,14.015,0,0,0,32,36Zm-7-7h2V15H25V13h3V11h2v2h3V11h2v2a4.985,4.985,0,0,1,2.97,9A4.985,4.985,0,0,1,35,31v2H33V31H30v2H28V31H25Z" class="color000 svgShape"/><path d="M5,60H59a1,1,0,0,0,1-1V49H52a4,4,0,0,1-4-4V39a4,4,0,0,1,4-4h8V24a1,1,0,0,0-1-1H51.95a19.974,19.974,0,0,1-39.9,0H5a1,1,0,0,0-1,1V59A1,1,0,0,0,5,60Zm49-4h2V54h2v3a1,1,0,0,1-1,1H54Zm0-31h4v2H54ZM6,25h4v2H6ZM6,54H8v2h2v2H7a1,1,0,0,1-1-1Z" class="color000 svgShape"/><path d="M38 26a3.009 3.009 0 0 0-3-3H29v6h6A3.009 3.009 0 0 0 38 26zM50 39v6a2.006 2.006 0 0 0 2 2h8V37H52A2.006 2.006 0 0 0 50 39zm5 0a3 3 0 1 1-3 3A3 3 0 0 1 55 39z" class="color000 svgShape"/><circle cx="55" cy="42" r="1" class="color000 svgShape"/><path d="M32,40A18,18,0,1,0,14,22,18.014,18.014,0,0,0,32,40ZM32,6A16,16,0,1,1,16,22,16.021,16.021,0,0,1,32,6Z" class="color000 svgShape"/></g></svg></svg>