<svg width="89" height="32" viewBox="0 0 89 32" fill="none" xmlns="http://www.w3.org/2000/svg">
<path fill-rule="evenodd" clip-rule="evenodd" d="M27.9046 3.56041C27.9348 3.59596 27.953 3.64021 27.9566 3.68675C27.9752 3.91501 29.6313 26.5588 14.1579 31.8325C14.1114 31.8484 14.061 31.8484 14.0145 31.8325C-1.4584 26.5588 0.197608 3.91501 0.215839 3.68675C0.219557 3.64035 0.237757 3.59628 0.267841 3.56077C0.297925 3.52526 0.338384 3.50014 0.38351 3.48891L14.0338 0.16161C14.0683 0.153487 14.1041 0.153487 14.1386 0.16161L27.7883 3.48891C27.8337 3.49983 27.8743 3.52487 27.9046 3.56041ZM25.3923 5.97814C25.4169 6.00693 25.4319 6.04272 25.4351 6.08049H25.4366C25.4519 6.26667 26.8064 24.7533 14.145 29.0581C14.1078 29.0722 14.0667 29.0722 14.0296 29.0581C1.36759 24.7533 2.72268 6.26667 2.73788 6.08049C2.74082 6.04272 2.75564 6.00682 2.78022 5.97803C2.8048 5.94925 2.83787 5.92898 2.87465 5.92018L14.0426 3.20214C14.0709 3.19505 14.1005 3.19505 14.1288 3.20214L25.2979 5.92018C25.3346 5.92909 25.3675 5.94939 25.3923 5.97814Z" fill="#888889"/>
<path d="M13.9297 7.25947L6.48291 9.07049C6.45836 9.07674 6.4364 9.09054 6.42002 9.10989C6.40369 9.12925 6.39378 9.15327 6.39172 9.17853C6.38211 9.3028 5.47889 21.6273 13.9189 24.4976C13.9443 24.5056 13.9717 24.5056 13.997 24.4976C22.437 21.6268 21.5344 9.3028 21.5243 9.17804C21.5222 9.15268 21.5124 9.12858 21.4959 9.10925C21.4795 9.08993 21.4572 9.07635 21.4325 9.07049L13.9863 7.25897C13.9678 7.25401 13.9482 7.25401 13.9297 7.25897" fill="#888889"/>
<path d="M39.2677 17.7201V15.9198H42.1794V21.2147C40.7774 21.4447 39.6403 21.56 38.7677 21.56C37.209 21.56 36.1355 21.1348 35.5473 20.2849C34.9689 19.435 34.6797 18.0847 34.6797 16.2348C34.6797 14.3851 34.9836 13.0504 35.5914 12.2298C36.1992 11.4102 37.2335 11 38.6942 11C39.6059 11 40.5912 11.1052 41.65 11.315L42.1794 11.4202L42.1205 13.0251C40.9441 12.8953 39.9785 12.8299 39.2236 12.8299C38.4785 12.8299 37.954 12.9198 37.6501 13.0997C37.3462 13.2799 37.1207 13.6149 36.9737 14.1047C36.8365 14.5851 36.7678 15.4152 36.7678 16.5948C36.7678 17.7652 36.91 18.5848 37.1943 19.0549C37.4786 19.5249 38.0668 19.7602 38.9589 19.7602L40.1795 19.6998V17.7201H39.2677Z" fill="#888889"/>
<path d="M46.0371 17.9747C46.0371 19.1649 46.6302 19.7602 47.8164 19.7602C49.0027 19.7602 49.5958 19.1649 49.5958 17.9747V11.1799H51.6251V17.9299C51.6251 19.1797 51.3065 20.0997 50.6692 20.6901C50.0418 21.2699 49.0909 21.56 47.8164 21.56C46.542 21.56 45.5862 21.2699 44.9489 20.6901C44.3215 20.0997 44.0078 19.1797 44.0078 17.9299V11.1799H46.0371V17.9747Z" fill="#888889"/>
<path d="M52.8086 21.3799L55.0585 11.1799H58.9113L61.1611 21.3799H59.1318L58.7348 19.5352H55.235L54.8379 21.3799H52.8086ZM56.6319 12.8903L55.6173 17.7349H58.3524L57.3378 12.8903H56.6319Z" fill="#888889"/>
<path d="M64.5176 17.9599V21.3799H62.4883V11.1799H66.3705C68.7233 11.1799 69.8997 12.3 69.8997 14.54C69.8997 15.8702 69.4096 16.8502 68.4291 17.4804L69.8556 21.3799H67.6351L66.4735 17.9599H64.5176ZM66.3998 16.19C66.8802 16.19 67.238 16.0401 67.4735 15.7399C67.7088 15.4403 67.8263 15.0449 67.8263 14.5548C67.8263 14.0649 67.6988 13.6753 67.4439 13.3851C67.1989 13.0952 66.8411 12.9499 66.3705 12.9499H64.5176V16.19H66.3998Z" fill="#888889"/>
<path d="M74.9806 21.3799H71.6133V11.1799H74.9806C75.8436 11.1799 76.5542 11.2751 77.1129 11.4653C77.6719 11.6447 78.1032 11.9502 78.4071 12.3804C78.7208 12.8001 78.9365 13.2997 79.054 13.8803C79.1718 14.45 79.2304 15.1952 79.2304 16.1153C79.2304 17.0349 79.1766 17.7998 79.0688 18.4099C78.9611 19.01 78.7551 19.55 78.4512 20.0296C78.157 20.4996 77.7258 20.8449 77.157 21.0649C76.5885 21.2751 75.8631 21.3799 74.9806 21.3799ZM77.1129 17.3298C77.1327 17.0103 77.1425 16.5698 77.1425 16.0098C77.1425 15.4403 77.1227 14.985 77.0836 14.645C77.0443 14.3052 76.9513 13.9948 76.8042 13.7151C76.6571 13.4348 76.4366 13.2451 76.1425 13.1449C75.8581 13.0349 75.471 12.9802 74.9806 12.9802H73.6426V19.5803H74.9806C75.716 19.5803 76.2502 19.3899 76.5837 19.01C76.8679 18.7001 77.0443 18.1401 77.1129 17.3298Z" fill="#888889"/>
<path d="M80.0078 21.3799L82.2576 11.1799H86.1103L88.3604 21.3799H86.3311L85.9339 19.5352H82.434L82.0371 21.3799H80.0078ZM83.8312 12.8903L82.8164 17.7349H85.5515L84.537 12.8903H83.8312Z" fill="#888889"/>
</svg>
