<svg width="107" height="32" fill="none" xmlns="http://www.w3.org/2000/svg"><g clip-path="url(#a)" fill="#888889"><path d="M39.596 7.976v9.03h-8.97V9.142a1.17 1.17 0 0 0-1.171-1.17h-3.037v21.615c0 .646.524 1.17 1.17 1.17h3.037V20.675H39.6v8.907a1.17 1.17 0 0 0 1.153 1.189H43.808V9.142a1.17 1.17 0 0 0-1.17-1.17h-3.042v.004Zm17.814 5.65v10.832a2.774 2.774 0 0 1-1.355 2.408c-2.378 1.374-4.84-.348-4.84-2.607v-9.463a1.17 1.17 0 0 0-1.171-1.17h-3.037v11.021a6.463 6.463 0 0 0 6.435 6.445h1.727a6.467 6.467 0 0 0 6.449-6.45v-9.846a1.17 1.17 0 0 0-1.17-1.17H57.41ZM103.358 30.77h3.037V15.425a1.17 1.17 0 0 0-1.171-1.17h-3.036V29.59a1.17 1.17 0 0 0 1.161 1.18h.009ZM106.458 11.184a2.345 2.345 0 1 0-4.332-1.796 2.345 2.345 0 0 0 4.332 1.796ZM72.473 13.616c-4.406 0-8.012 3.15-8.012 7.556v2.382c0 4.406 3.606 7.538 8.012 7.538 4.407 0 8.013-3.132 8.013-7.538v-2.382c.004-4.406-3.602-7.556-8.013-7.556ZM76.26 23.84c0 2.083-1.703 3.47-3.791 3.47s-3.787-1.387-3.787-3.47v-2.974c0-2.083 1.704-3.47 3.787-3.47s3.791 1.387 3.791 3.47v2.974ZM91.341 13.616a8.623 8.623 0 0 0-3.81.863V9.165a1.17 1.17 0 0 0-1.17-1.17h-3.037v15.559c0 4.406 3.606 7.538 8.013 7.538 4.406 0 8.012-3.132 8.012-7.538v-2.382c.005-4.406-3.593-7.556-8.008-7.556Zm3.792 10.223c0 2.083-1.704 3.47-3.792 3.47-2.083 0-3.787-1.387-3.787-3.47v-2.974c0-2.083 1.704-3.47 3.787-3.47 2.084 0 3.792 1.387 3.792 3.47v2.974ZM13.701 9.843c0-4.592-2.237-8.546-3.94-9.83 0 0-.131-.072-.118.113-.14 8.871-4.673 11.276-7.163 14.511-5.748 7.475-.406 15.668 5.044 17.182 3.036.85-.705-1.5-1.189-6.458-.592-5.983 7.366-10.556 7.366-15.518Z"/><path d="M16.313 12.866c-.036-.023-.086-.04-.117.018-.095 1.116-1.234 3.502-2.68 5.699-4.903 7.438-2.11 11.026-.538 12.956.913 1.116 0 0 2.278-1.143a10.283 10.283 0 0 0 4.912-7.945c.448-5.287-2.725-8.618-3.855-9.585Z"/></g><defs><clipPath id="a"><path fill="#fff" d="M0 0h107v32H0z"/></clipPath></defs></svg>