<svg width="119" height="32" fill="none" xmlns="http://www.w3.org/2000/svg"><path d="M35.82 24.316V1.505h1.586V22.81H48.26v1.505H35.82Zm20.28.316c-2.46 0-4.36-.793-5.784-2.298-1.344-1.504-2.062-3.64-2.062-6.415 0-2.693.631-4.91 1.981-6.495 1.344-1.665 3.09-2.458 5.387-2.458 1.982 0 3.566.712 4.755 2.062 1.19 1.424 1.74 3.325 1.74 5.703V16H49.84c0 2.297.557 4.118 1.666 5.306 1.028 1.27 2.612 1.82 4.594 1.82.947 0 1.82-.08 2.533-.234a15.283 15.283 0 0 0 2.773-.873v1.504c-.947.396-1.82.712-2.612.873a14.52 14.52 0 0 1-2.694.236Zm-.478-16.236c-1.666 0-2.928.558-3.962 1.585-.948 1.109-1.586 2.613-1.74 4.675h10.457c0-1.981-.396-3.486-1.269-4.594-.792-1.115-1.981-1.666-3.486-1.666Zm14.737-1.35c1.189 0 2.297.236 3.17.632.873.477 1.666 1.189 2.378 2.297h.08c-.08-1.343-.08-2.613-.08-3.882V0h1.504v24.316h-1.027l-.396-2.613c-1.27 1.9-3.171 2.929-5.549 2.929-2.377 0-4.117-.713-5.386-2.217-1.27-1.424-1.82-3.567-1.82-6.334 0-2.93.63-5.152 1.82-6.731 1.188-1.585 3.009-2.304 5.306-2.304Zm0 1.35c-1.82 0-3.244.632-4.198 1.982-.948 1.269-1.424 3.17-1.424 5.703 0 4.83 1.9 7.207 5.622 7.207 1.901 0 3.325-.557 4.198-1.666.873-1.108 1.344-2.928 1.344-5.548v-.235c0-2.613-.477-4.514-1.344-5.622-.792-1.27-2.217-1.82-4.198-1.82Zm23.523-1.028v1.109l-3.486.235c.947 1.189 1.424 2.458 1.424 3.802 0 1.666-.557 2.929-1.665 3.963-1.109 1.028-2.533 1.504-4.36 1.504-.792 0-1.343 0-1.585-.08-.631.316-1.108.712-1.424 1.108-.315.477-.476.873-.476 1.424 0 .552.235.948.631 1.19.396.235 1.108.396 2.062.396h2.929c1.82 0 3.244.396 4.198 1.108.953.712 1.505 1.82 1.505 3.325 0 1.82-.713 3.17-2.136 4.118-1.425.947-3.487 1.424-6.18 1.424-2.137 0-3.802-.396-4.991-1.27-1.189-.792-1.74-1.981-1.74-3.405 0-1.189.396-2.136 1.109-2.929.712-.793 1.74-1.27 2.928-1.585-.477-.235-.947-.557-1.188-.947a2.134 2.134 0 0 1-.478-1.344c0-1.108.713-2.136 2.137-3.01-.948-.396-1.74-1.027-2.297-1.9-.557-.873-.793-1.901-.793-3.01 0-1.665.558-3.09 1.585-4.117 1.109-1.028 2.533-1.505 4.36-1.505 1.108 0 1.98.08 2.613.316h5.306v.08h.012ZM80.1 27.17c0 2.297 1.74 3.486 5.226 3.486 4.433 0 6.656-1.424 6.656-4.278 0-1.028-.315-1.74-1.027-2.217-.713-.477-1.82-.712-3.406-.712h-2.774c-3.09.074-4.675 1.263-4.675 3.721Zm1.35-14.576c0 1.344.396 2.298 1.189 3.09.792.712 1.82 1.109 3.17 1.109 1.424 0 2.532-.397 3.244-1.109.793-.712 1.11-1.74 1.11-3.09 0-1.424-.397-2.532-1.19-3.244-.793-.712-1.82-1.109-3.244-1.109-1.344 0-2.459.397-3.17 1.19-.793.705-1.11 1.814-1.11 3.163Z" fill="#888889"/><path d="M101.567 24.632c-2.458 0-4.359-.793-5.783-2.298-1.344-1.504-2.062-3.64-2.062-6.414 0-2.694.632-4.91 1.982-6.496 1.343-1.665 3.09-2.458 5.387-2.458 1.981 0 3.566.712 4.755 2.062 1.189 1.424 1.74 3.325 1.74 5.703V16H95.388c0 2.297.557 4.118 1.666 5.306 1.028 1.27 2.613 1.821 4.594 1.821.947 0 1.82-.08 2.532-.235a15.272 15.272 0 0 0 2.775-.873v1.504c-.948.397-1.821.712-2.614.873a14.9 14.9 0 0 1-2.774.236Zm-.396-16.236c-1.665 0-2.929.558-3.963 1.585-.947 1.109-1.585 2.613-1.74 4.675h10.459c0-1.981-.397-3.486-1.27-4.594-.792-1.115-1.981-1.666-3.486-1.666Zm15.207-1.35c.713 0 1.505.081 2.298.236l-.316 1.504a9.923 9.923 0 0 0-2.217-.235c-1.424 0-2.613.632-3.566 1.82-.948 1.27-1.424 2.774-1.424 4.675v9.27h-1.586V7.368h1.344l.161 3.09h.081c.712-1.27 1.424-2.136 2.216-2.613.954-.557 1.901-.799 3.009-.799ZM20.695.793H9.363V16h15.208V4.75c.006-2.137-1.74-3.957-3.877-3.957Zm-14.812 0h-1.9C1.845.793.02 2.533.02 4.755v1.901h5.863V.793ZM.02 10.217h5.863v5.864H.02v-5.864Zm18.693 15.207h1.9c2.137 0 3.964-1.74 3.964-3.963v-1.894h-5.864v5.857Zm-9.35-5.857h5.864v5.863H9.363v-5.863Zm-9.343 0v1.9c0 2.137 1.74 3.963 3.962 3.963h1.901v-5.863H.02Z" fill="#888889"/></svg>