<svg width="124" height="32" fill="none" xmlns="http://www.w3.org/2000/svg"><path fill-rule="evenodd" clip-rule="evenodd" d="M38.76 17.735c.86.397 1.743.492 3.175.515 3.748.07 5.108.96 5.108 3.114 0 .54-.12 1.032-.334 1.454-.216.42-.669.866-1.314 1.31-.643.447-1.765.656-3.366.656-2.266 0-3.938-.539-5.06-1.64a.785.785 0 0 1-.215-.467c.024-.399.216-.586.574-.586.19 0 .334.046.453.164.835.914 2.34 1.43 4.178 1.43 2.482 0 3.867-.844 3.867-2.344.023-.679-.192-1.123-.645-1.358-.884-.468-1.838-.586-3.366-.609-3.628-.07-4.87-.866-4.87-2.858 0-2.106 1.934-3.442 4.919-3.442 1.838 0 3.342.515 4.463 1.475.119.118.19.26.19.47-.022.35-.215.56-.549.585-.19 0-.358-.048-.478-.166-.857-.818-2.122-1.24-3.554-1.24-.574 0-1.1.047-1.553.164a5.489 5.489 0 0 0-1.456.633c-.5.302-.74.796-.763 1.521-.024.61.19 1.008.596 1.22Zm35.157.35v5.903c0 .421-.19.633-.595.656-.406-.023-.622-.235-.622-.656v-5.785c0-2.624-1.123-4.005-3.294-4.005-2.196 0-3.605 1.71-3.605 4.45v5.34c0 .421-.19.633-.596.656-.405-.023-.62-.235-.62-.656v-5.785c0-2.624-1.122-4.005-3.295-4.005-2.22 0-3.604 1.71-3.604 4.45v5.34c0 .421-.215.633-.62.656-.383-.023-.573-.235-.597-.656V13.894c.024-.446.216-.656.597-.679.404.023.619.235.619.68v1.217h.049c.762-1.311 2.076-2.038 3.77-2.038 1.911 0 3.2.843 3.844 2.412h.049c.762-1.498 2.147-2.412 4.176-2.412 2.888 0 4.346 1.756 4.346 5.012l-.002-.001Zm15.08.845c0-2.81-1.885-4.732-4.703-4.732-2.793 0-4.748 1.921-4.748 4.732 0 2.81 1.955 4.73 4.748 4.73 2.818 0 4.703-1.92 4.703-4.73Zm-9.453-5.037v1.616h.048c.239-.397.525-.725.836-1.029.334-.305.811-.61 1.431-.914.62-.328 1.48-.492 2.604-.492 1.717 0 3.15.586 4.176 1.616 1.527 1.685 1.527 3.044 1.599 4.24 0 .866-.118 1.568-.525 2.669-.62 1.616-2.72 3.28-5.25 3.186-1.123 0-1.983-.164-2.605-.47-1.24-.655-1.789-1.194-2.266-1.966h-.048v5.995c0 .421-.19.633-.597.656-.406-.023-.619-.235-.619-.656V13.893c0-.445.213-.655.619-.678.407.023.597.233.597.68v-.002Zm15.584-5.269v15.364c0 .421-.215.633-.62.656-.383-.023-.575-.235-.6-.656V8.624c.025-.423.217-.633.6-.656.405.023.62.233.62.656Zm4.836 9.626h9.38c-.309-2.436-2.101-4.052-4.678-4.052-2.625 0-4.392 1.616-4.702 4.052Zm9.81 1.101H99.94c.191 2.576 2.004 4.31 4.845 4.31 1.695 0 3.008-.68 3.868-1.734a.552.552 0 0 1 .454-.235c.404.023.62.235.62.634 0 .14-.049.28-.167.398-1.098 1.264-2.698 2.061-4.775 2.061-1.838 0-3.364-.586-4.439-1.616-1.576-1.687-1.624-3.045-1.673-4.24 0-.866.097-1.592.55-2.647.67-1.64 2.792-3.325 5.443-3.208 3.415 0 5.848 2.32 5.848 5.574-.025.446-.288.68-.74.703Zm13.379 4.192a.682.682 0 0 1 .216.515c-.024.374-.237.563-.645.586-.191 0-.358-.093-.5-.258l-4.322-4.73-4.367 4.753a.56.56 0 0 1-.478.235c-.383-.023-.573-.235-.596-.609 0-.164.047-.305.167-.421l4.439-4.732-4.274-4.566c-.141-.164-.214-.328-.214-.517.024-.374.24-.56.645-.584.191 0 .358.094.5.258l4.202 4.638 4.227-4.663a.617.617 0 0 1 .475-.233c.383.023.575.233.599.609a.563.563 0 0 1-.167.421l-4.297 4.614 4.392 4.684h-.002ZM54.102 10.68c0-1.382-1.14-2.502-2.548-2.502-1.41 0-2.55 1.12-2.55 2.501 0 1.176.827 2.159 1.941 2.426V23.99c.023.42.215.632.596.655.406-.023.622-.235.622-.655V13.105c1.112-.267 1.94-1.25 1.94-2.426Z" fill="#888889"/><mask id="a" style="mask-type:alpha" maskUnits="userSpaceOnUse" x="0" y="0" width="32" height="32"><path d="M.246.572h30.925v31.025H.246V.572Z" fill="#fff"/></mask><g mask="url(#a)"><path fill-rule="evenodd" clip-rule="evenodd" d="m14.11 6.195 3.644-2.85-8.187 1.833 4.544 1.017Zm2.835.636 1.376-2.802-3.09 2.417 1.714.385Zm2.182.488V4.415l-1.283 2.617 1.284.287Zm2.61.586-1.712-3.487v3.104l1.712.383Zm-9.896.067 1.373-1.074-3.847-.863 2.475 1.936-.001.001Zm15.563 1.203L20.83 4.03l2.024 4.126 4.547 1.018.002.001Zm-17.313.166 1.03-.807-2.315-1.81 1.284 2.617h.002Zm5.032 1.2 1.423-2.896-2.213-.496-1.772 1.386 2.562 2.006Zm8.994.183 3.086-.69-3.849-.864.763 1.554Zm-16.12.255L9.37 9.905 8 7.107v3.872h-.001Zm12.027.662 3.195-.715-.985-2.006-2.21-.496v3.216Zm-2.72.607 1.822-.407V8.224l-1.683-.379-1.6 3.26 1.461 1.143Zm7.784.455 2.314-1.811-2.886.646.572 1.165Zm-10.057.053 1.154-.257-.741-.581-.413.84v-.002Zm-2.942.66 1.824-.408.811-1.653-2.883-2.256-1.35 1.056 1.598 3.26Zm7.037.258v-.928l-.923.204.923.724Zm-11.13.658 3.196-.715-1.423-2.9-1.772 1.387v2.228Zm-4.542.202 3.645-2.853.002-4.575-3.647 7.427v.001Zm9.446.535.514-1.047-.926.207.412.84Zm13.35 0 1.712-3.488-2.474 1.936.761 1.553v-.001Zm-22.237.154 3.086-.69v-1.724l-3.086 2.414Zm17.473.298 2.882-2.255-.749-1.527-3.595.805v1.832l1.462 1.145Zm-1.463 1.145.743-.582-.743-.582v1.164Zm-12.925.064v-1.294l-2.885.646 2.885.646v.002Zm4.493 1.004.81-1.65-.81-1.653-3.594.804v1.694l3.594.805Zm13.176.354.984-2.005-.983-2.002-2.562 2.003 2.56 2.006v-.002Zm-11.355.055L12.9 17.1l-.412.836.924.207Zm3.67.821 2.043-1.597V14.8l-2.041-1.598-2.55.57-1.136 2.312 1.133 2.31 2.551.571Zm-9.984.392v-1.724l-3.085-.691 3.085 2.415Zm12.026.067v-.928l-.923.722.923.206Zm9.646.782.001-8.242-2.024 4.121 2.023 4.12Zm-13.328.045.742-.583-1.155-.258.413.84Zm8.175.18.75-1.528-2.881-2.255-1.464 1.145v1.832l3.595.806Zm4.345.16L26.25 17.1l-.762 1.552 2.475 1.938Zm-.56.688-2.314-1.812-.573 1.164 2.887.648Zm-17.633.17 1.423-2.898-3.194-.715v2.225l1.771 1.389ZM23.353 23l3.851-.861-3.088-.692L23.353 23Zm-11.513.07 2.882-2.256-.81-1.654-1.822-.408-1.6 3.26 1.35 1.057Zm8.182.676 2.212-.495.985-2.005-3.196-.716v3.216Zm-2.581.578 1.683-.376.001-3.62-1.82-.408-1.463 1.144 1.598 3.26Zm-3.11.696 2.21-.495-1.42-2.896-2.562 2.004 1.773 1.387Zm-7.232.04v-4.575L3.454 17.63l3.643 7.43H7.1Zm.896 0 1.375-2.797-1.373-1.075v3.872h-.002Zm.81.383 2.315-1.811-1.03-.805-1.285 2.616Zm.56.688 3.846-.86-1.371-1.075-2.475 1.935Zm9.759 1.626V24.85l-1.284.288 1.284 2.618Zm.898 0 1.713-3.49-1.713.383v3.107Zm-1.706.382-1.374-2.8-1.713.385 3.085 2.415h.002Zm2.514 0 6.574-5.142-4.549 1.019-2.025 4.124v-.001Zm-3.078.686-3.643-2.852-4.544 1.017 8.187 1.835Zm1.821 2.774a1.955 1.955 0 0 1-1.525-.72 1.893 1.893 0 0 1-.425-1.179l-8.33-1.867a1.948 1.948 0 0 1-1.746 1.066 1.954 1.954 0 0 1-1.526-.719 1.891 1.891 0 0 1 .298-2.68l-3.705-7.551c-.139.03-.278.043-.42.043a1.951 1.951 0 0 1-1.523-.717 1.89 1.89 0 0 1 .309-2.688 1.946 1.946 0 0 1 1.21-.416c.144 0 .285.016.425.045l3.709-7.554a1.87 1.87 0 0 1-.71-1.698c.058-.508.314-.962.722-1.28a1.95 1.95 0 0 1 1.214-.418 1.953 1.953 0 0 1 1.749 1.07l8.33-1.865A1.877 1.877 0 0 1 18.36.99a1.95 1.95 0 0 1 1.214-.417c.598 0 1.154.262 1.525.72.463.57.554 1.35.238 2.007l6.683 5.231a1.952 1.952 0 0 1 1.201-.407c.597 0 1.153.262 1.525.72a1.89 1.89 0 0 1-.309 2.688 1.94 1.94 0 0 1-.767.364v8.381c.424.098.803.334 1.075.67.325.398.47.898.413 1.405a1.894 1.894 0 0 1-.722 1.282 1.955 1.955 0 0 1-1.214.416c-.437 0-.864-.144-1.205-.407l-6.682 5.226c.384.797.16 1.76-.548 2.312a1.95 1.95 0 0 1-1.214.417Z" fill="#888889"/></g></svg>