<svg xmlns="http://www.w3.org/2000/svg" width="512" height="512"><g fill-rule="evenodd" clip-rule="evenodd"><path fill="#009FBE" d="m276.324 19.016 175.003 99.66c14.228 8.166 20.324 22.394 20.324 36.62v201.39c0 16.329-10.162 30.557-22.356 36.655L276.324 493c-12.195 8.131-28.454 8.131-40.684 0L60.708 391.309c-12.195-6.099-20.36-20.326-20.36-34.623v-201.39c0-16.26 10.197-30.486 24.424-36.62l170.868-99.66c14.263-8.131 28.489-8.131 40.684 0z"/><path fill="#D1D2D4" d="m276.324 19.016 77.305 44.749v20.359c0 132.216-105.758 238.01-238.01 238.01-26.421 0-50.847-4.065-75.271-12.195V155.295c0-16.26 10.197-30.486 24.424-36.62l170.868-99.66c14.263-8.13 28.489-8.13 40.684.001z" opacity=".7"/><path fill="#B2B2B2" d="m181.15 293.535-18.872 7.417 9.106-36.617 19.063-7.699 27.606-111.643h67.978l-20.188 82.064 18.687-7.512-9.014 36.431-18.872 7.511-11.271 46.2h102.349l-11.551 47.321H165.565z"/><path fill="#FFF" d="m182.15 288.535-18.872 7.417 9.106-36.617 19.063-7.699 27.606-111.643h67.978l-20.188 82.064 18.687-7.512-9.014 36.431-18.872 7.511-11.271 46.2h102.349l-11.551 47.321H166.565z"/><path fill="#FFF" d="m182.15 289.535-18.872 7.417 9.106-36.617 19.063-7.699 27.606-111.643h67.978l-20.188 82.064 18.687-7.512-9.014 36.431-18.872 7.511-11.271 46.2h102.349l-11.551 47.321H166.565z"/></g></svg>